<svg width="1273" height="365" viewBox="0 0 1273 365" fill="none" xmlns="http://www.w3.org/2000/svg">
<path fill-rule="evenodd" clip-rule="evenodd" d="M1272.73 365H0C127.921 146.642 365.018 0 636.365 0C907.712 0 1144.81 146.642 1272.73 365Z" fill="#FBEADF"/>
<path fill-rule="evenodd" clip-rule="evenodd" d="M1170.28 365H102.454C220.929 197.996 415.909 89 636.365 89C856.821 89 1051.8 197.996 1170.28 365Z" fill="#B9DCF2"/>
<circle opacity="0.2" cx="371.865" cy="290.5" r="10.5" fill="white"/>
<path opacity="0.2" d="M865.82 310.979L865.82 310.979L865.299 310.458L865.299 310.458L864.951 310.11L864.951 310.11L864.72 309.879L864.72 309.879L857.832 302.988C857.743 302.899 857.667 302.804 857.485 302.561L855.485 304.061L857.485 302.561C857.362 302.398 857.341 302.356 857.316 302.306L857.246 302.167L857.203 302.103L857.197 302.089L857.184 302.059C857.175 302.038 857.161 302.007 857.146 301.973C857.14 301.96 857.134 301.946 857.127 301.931C856.606 300.683 856.87 299.147 857.832 298.185L863.62 292.395L864.662 291.353L864.662 291.353L864.778 291.237L864.778 291.237L868.077 287.936L870.508 285.505C870.889 285.124 871.34 284.854 871.869 284.673C872.255 284.56 872.633 284.5 872.965 284.5C873.388 284.5 873.792 284.571 874.137 284.697C874.446 284.809 874.771 284.988 875.157 285.289C875.277 285.396 875.38 285.475 875.433 285.515L880.401 290.484L880.69 290.774L883.526 293.611L884.337 294.422L884.337 294.422L885.031 295.116L885.031 295.116L887.81 297.896C889.236 299.322 889.171 301.485 887.89 302.735L887.879 302.746L887.868 302.757L880.227 310.4L879.475 311.153L878.548 312.079L880.181 313.711L878.548 312.079L875.133 315.495C873.794 316.835 871.673 316.835 870.334 315.495L865.82 310.979ZM857.22 302.141C857.22 302.141 857.22 302.14 857.219 302.139C857.22 302.14 857.22 302.141 857.22 302.141ZM875.485 285.554C875.485 285.554 875.484 285.553 875.482 285.551C875.484 285.553 875.485 285.554 875.485 285.554Z" stroke="white" stroke-width="5"/>
<path opacity="0.3" fill-rule="evenodd" clip-rule="evenodd" d="M1211.92 365C1087.59 175.299 873.113 50 629.365 50C385.618 50 171.135 175.299 46.8143 365H42.0371C166.854 172.984 383.28 46 629.365 46C875.45 46 1091.88 172.984 1216.69 365H1211.92Z" fill="white"/>
</svg>
