<svg width="106" height="113" viewBox="0 0 106 113" fill="none" xmlns="http://www.w3.org/2000/svg">
<path d="M101.466 74.2038L81.4359 94.4479L79.4632 96.4416L77.0352 98.8955L68.0822 107.944C62.0123 114.079 52.3005 114.079 46.2307 107.944L34.3945 95.9815L33.0287 94.6013L32.1183 93.6811L31.5113 93.0676L13.4534 74.8172C12.8465 74.2038 12.3912 73.5903 11.936 72.9768C11.4807 72.3634 11.1772 71.9033 10.8738 71.2898C10.5703 70.8297 10.4185 70.3697 10.2668 70.0629C7.83881 64.3884 8.90104 57.3337 13.4534 52.7327L28.6281 37.3963L31.3595 34.6357L31.663 34.329L40.3126 25.5872L46.6859 19.1459C48.5069 17.3055 50.6313 16.0786 52.9075 15.3117C54.425 14.8517 56.0942 14.5449 57.7634 14.5449C59.5844 14.5449 61.4053 14.8517 63.0745 15.4651C64.7437 16.0786 66.2612 16.9988 67.7787 18.2257C68.0822 18.5324 68.3857 18.6858 68.6891 18.9925L81.8911 32.3352L82.6498 33.102L90.0854 40.6169L92.2099 42.764L94.0308 44.6044L101.315 51.9659C107.536 58.2538 107.536 68.2225 101.466 74.2038Z" fill="#0085FF"/>
<path d="M83.658 29.668C83.658 30.5809 83.5059 31.4938 83.2017 32.4066C83.2017 32.4066 83.2017 32.4066 83.2017 32.5588C83.2017 32.7109 83.0495 32.8631 83.0495 32.8631V33.0152C83.0495 33.1674 82.8975 33.3195 82.8975 33.4717C82.8975 33.4717 82.8975 33.4717 82.8975 33.6238C82.8975 33.776 82.7454 33.9281 82.5932 34.2324C82.5932 34.3845 82.4411 34.5367 82.4411 34.6888C81.9848 35.6017 81.3764 36.6668 80.9201 37.5796C80.768 37.7318 80.6158 38.0361 80.4637 38.1882C80.4637 38.3404 80.3116 38.3404 80.3116 38.4925C80.1595 38.6447 80.0074 38.949 80.0074 39.1011C79.8553 39.4054 79.7032 39.5575 79.5511 39.8618L79.399 40.014C79.399 40.014 79.399 40.014 79.399 40.1661C79.399 40.3183 79.2469 40.3183 79.2469 40.4704C79.0948 40.7747 78.7906 41.079 78.6385 41.5355C77.8779 42.7526 77.1174 43.9698 76.509 45.0348C76.509 45.187 76.3568 45.3391 76.3568 45.4913C76.3568 45.6434 76.2047 45.6434 76.2047 45.7956C76.0526 45.9477 76.0526 46.0999 75.9005 46.4042C75.9005 46.4042 75.9005 46.4042 75.9005 46.5563C75.7484 46.7085 75.7484 46.8606 75.7484 47.1649C75.7484 47.3171 75.5963 47.4692 75.5963 47.6213C75.4442 47.9256 75.4442 48.2299 75.2921 48.5342C75.2921 48.6864 75.14 48.8385 75.14 48.9907V49.1428C75.14 49.295 75.14 49.4471 75.14 49.4471C75.14 49.5993 75.14 49.5993 75.14 49.7514C75.14 49.9036 75.14 50.0557 75.14 50.2079C75.14 50.36 75.14 50.5121 75.14 50.6643C75.14 50.8164 75.14 50.9686 75.14 51.1207C75.14 51.2729 75.14 51.2729 75.14 51.425C75.14 51.8815 75.2921 52.3379 75.4442 52.7943C75.4442 52.9465 75.5963 53.0986 75.5963 53.2508C75.7484 53.5551 75.9005 53.8594 76.0526 54.0115C76.0526 54.1637 76.2047 54.1637 76.2047 54.3158C76.3568 54.468 76.3568 54.6201 76.509 54.7723C76.509 54.9244 76.661 54.9244 76.661 55.0766C76.8132 55.2287 76.9653 55.533 77.2695 55.6851C77.4216 55.8373 77.4216 55.8373 77.5737 55.9894C77.7258 56.1416 77.7258 56.1416 77.8779 56.2937C78.03 56.4459 78.3342 56.598 78.4863 56.7502C78.4863 56.7502 78.4863 56.7502 78.6385 56.7502C78.7906 56.9023 78.9427 56.9023 79.0948 57.0545C79.2469 57.0545 79.2469 57.2066 79.399 57.2066C79.7032 57.3588 80.0074 57.6631 80.4637 57.8152C80.6158 57.9674 80.768 57.9674 80.9201 57.9674C81.2243 58.1195 81.5285 58.2716 81.9848 58.2716C82.1369 58.2716 82.289 58.4238 82.4411 58.4238C82.5932 58.4238 82.7453 58.4238 82.7453 58.5759C82.8974 58.5759 83.2017 58.7281 83.3538 58.7281C83.3538 63.5968 83.3538 69.5305 82.8975 75.6164C82.8975 75.6164 82.8975 75.6164 82.8975 75.7686C82.4411 83.2238 81.5285 90.679 80.1595 96.6127L77.7258 99.0471L68.7515 108.024C62.6672 114.11 52.9323 114.11 46.848 108.024L34.9837 96.1563L33.6147 94.7869L32.7021 93.8741L32.0936 93.2655L13.9929 75.16C13.3845 74.5514 12.9281 73.9428 12.4718 73.3342C12.0155 72.7256 11.7113 72.2692 11.4071 71.6606C20.6856 69.2262 23.4235 59.1845 25.553 54.1637C27.6825 49.295 27.0741 44.2741 31.9415 35.1453C32.3979 34.3846 32.8542 33.4717 33.4626 32.5588C27.6825 31.9502 19.1645 28.4508 13.9929 25.1036C9.12545 22.0606 5.17065 13.9968 3.9538 9.58457C7.90858 12.3232 8.97335 14.4533 17.9477 17.0398C23.1193 18.5613 29.5078 19.0177 34.2231 19.322C30.2684 17.1919 30.2684 17.4962 26.6178 13.6925C24.3362 11.2582 23.4235 8.51954 22.2067 4.56372C34.071 11.4103 40.0032 12.9318 57.1913 15.214C57.4955 15.214 57.9519 15.3662 58.4082 15.3662C58.8645 15.5183 59.4729 15.5183 60.0814 15.6705C60.6898 15.8226 61.4503 15.9748 62.2109 16.1269C62.363 16.1269 62.6672 16.279 62.8193 16.279H62.9714C63.2756 16.279 63.4277 16.4312 63.7319 16.4312C64.0362 16.4312 64.1883 16.5833 64.4925 16.5833C65.1009 16.7355 65.5572 16.8876 66.1657 17.0398C66.4699 17.1919 66.7741 17.1919 67.0783 17.3441C67.5346 17.4962 68.143 17.6484 68.5994 17.8005C68.9036 17.9527 69.2078 17.9527 69.512 18.1048C70.4247 18.4091 71.1852 18.7134 72.0978 19.0177C72.402 19.1698 72.7063 19.1698 73.0105 19.322C73.3147 19.4741 73.4668 19.4741 73.771 19.6263C74.6837 19.9306 75.5963 20.387 76.3568 20.8435C76.6611 20.9956 76.8132 21.1478 77.1174 21.2999C77.4216 21.452 77.5737 21.6042 77.8779 21.7563C78.03 21.7563 78.1821 21.9085 78.1821 21.9085C78.3342 22.0606 78.4863 22.0606 78.4863 22.0606C78.7905 22.2128 78.9426 22.3649 79.2469 22.5171C79.399 22.6692 79.399 22.6692 79.5511 22.8214C79.7032 22.9735 80.0074 23.1257 80.1595 23.2778C80.3116 23.43 80.6158 23.5821 80.7679 23.8864C80.92 24.0385 80.9201 24.0385 81.0722 24.1907C81.2243 24.3428 81.2243 24.3428 81.3764 24.495C81.5285 24.6471 81.5285 24.6471 81.6806 24.7993C81.8327 24.9514 81.8327 24.9514 81.9848 25.1036C82.1369 25.2557 82.1369 25.2557 82.289 25.4079C82.4411 25.56 82.4411 25.7122 82.5932 25.7122C82.7454 25.8643 82.7453 25.8643 82.8975 26.0165L83.0495 26.1686C83.2017 26.3208 83.3538 26.6251 83.3538 26.7772C83.658 27.2336 83.8101 27.6901 83.9622 27.9944V28.1465C83.9622 28.2987 84.1143 28.4508 84.1143 28.603C84.1143 28.7551 84.2664 28.9073 84.2664 29.2115C84.2664 29.3637 84.2664 29.3637 84.2664 29.5158C84.2664 29.668 84.2664 29.8201 84.2664 29.9723C83.658 29.2115 83.658 29.5158 83.658 29.668Z" fill="url(#paint0_radial)"/>
<path d="M90.5039 55.686C93.8503 44.5793 93.5461 36.6676 84.1154 29.9731C81.8338 39.102 74.6848 43.8185 74.6848 49.6001C74.6848 52.9474 78.6396 58.2725 82.4422 58.2725C86.0928 58.2725 87.9181 55.9903 88.2223 54.7731C88.9828 55.0774 89.4392 55.2296 90.5039 55.686Z" fill="url(#paint1_radial)"/>
<path d="M21.6001 4.10693C33.4645 10.9536 39.3967 12.475 56.5848 14.7572C61.148 15.3658 83.812 18.8652 83.812 29.6676C83.812 36.3621 74.6855 43.8173 74.6855 50.3596C74.6855 55.3805 79.2488 57.8148 82.7472 58.4234C82.7472 62.5314 82.8993 66.1829 82.5951 70.7474C82.1388 76.8332 74.6855 84.1363 62.9733 84.1363C44.112 84.1363 24.4902 61.7707 26.9239 48.9903C27.9886 43.3609 29.3576 39.4051 33.0082 32.2541C27.2281 31.6456 18.7101 28.1462 13.5385 24.7989C8.67102 21.756 4.71625 13.6922 3.49939 9.27994C7.45418 12.0186 8.51892 14.1486 17.4932 16.7351C22.6649 18.2566 29.0534 18.7131 33.7687 19.0173C29.8139 16.8873 29.8139 17.1916 26.1634 13.3879C23.7296 10.8014 22.817 8.06276 21.6001 4.10693Z" fill="url(#paint2_radial)"/>
<path d="M72.7064 38.9509C72.7064 41.2331 72.2501 42.6024 70.2727 43.5153C69.9685 43.6674 69.3601 43.9717 68.9037 44.1239C68.4474 44.276 68.1432 44.4282 67.6869 44.5803C67.2306 44.7325 66.7742 44.8846 66.3179 44.8846C66.3179 44.8846 66.3179 44.8846 66.1658 44.8846C65.8616 45.0368 65.4053 45.0368 64.9489 45.0368H64.7968C64.0363 45.1889 63.1237 45.1889 62.0589 45.1889C58.8647 45.1889 54.7578 44.1239 54.7578 40.168C54.7578 36.8208 56.431 32.2564 59.0168 29.3656C60.5379 27.692 62.211 26.627 64.1884 26.627C65.4053 26.627 66.7742 27.3877 68.1432 28.6049C70.5769 31.0392 72.7064 34.6908 72.7064 38.9509Z" fill="url(#paint3_radial)"/>
<path d="M59.7784 36.5156C60.2347 35.6027 61.4516 33.9291 62.0601 33.4727C62.9727 34.842 64.6459 37.2763 63.8854 37.2763C63.1248 37.1242 60.0826 36.6678 59.7784 36.5156Z" fill="white"/>
<path d="M6.2363 13.3899C8.82212 17.3457 18.2528 25.866 40.4604 25.866C39.0914 28.3003 34.8325 31.7997 33.1593 32.104C31.6382 32.2561 18.8612 28.7567 14.7543 25.5617C6.99685 19.4758 5.93209 14.3028 6.2363 13.3899Z" fill="url(#paint4_radial)"/>
<path d="M24.4886 8.36694C26.9224 10.9534 32.8546 15.67 37.722 17.0393C35.4404 19.1694 28.2913 16.1264 26.3139 13.5399C24.3365 11.1056 23.576 8.82338 24.4886 8.36694Z" fill="url(#paint5_radial)"/>
<path d="M86.3982 56.1413L80.466 51.5769C80.466 51.5769 88.5277 53.707 88.0714 54.4677C87.615 55.3806 86.3982 56.1413 86.3982 56.1413Z" fill="#9B4A31"/>
<path d="M41.6758 82.1602C41.6758 82.3123 41.6758 82.4644 41.6758 82.6166C41.6758 87.181 40.0026 90.9847 37.2647 90.9847C37.2647 92.6583 36.2 94.9405 34.831 96.0055L33.1578 94.3319L32.2452 93.419C33.6141 91.7454 34.2226 88.7025 34.9831 88.5503C35.7436 88.3982 40.4589 86.7246 40.4589 85.2031C40.3068 83.6816 41.6758 82.1602 41.6758 82.1602Z" fill="#FF8728"/>
<path d="M94.1543 44.8834C93.8501 39.5582 91.5685 33.6245 85.18 28.6036C83.0505 17.0405 65.7103 14.3018 50.1954 11.8675C36.0494 9.73741 22.8161 7.60735 22.8161 0H19.6218C19.6218 8.36809 23.1203 13.0846 26.1624 15.6711C26.4666 15.9754 26.7709 16.1276 27.0751 16.4319C6.69272 14.454 3.49845 6.84662 3.19424 0.608591C3.19424 0.456444 3.19424 0.152147 3.19424 0H0C0 0.456441 0 0.912885 0 1.36933C0.760536 23.2785 20.2302 31.6466 30.5735 33.1681C29.813 34.5374 29.2046 35.9067 28.5961 37.5803C27.5314 40.4711 26.4666 43.5141 25.554 46.7092C22.2076 57.5116 18.8613 68.6183 10.1912 69.9877C10.3433 70.4441 10.6475 70.9005 10.7996 71.2048C11.1038 71.8134 11.408 72.2699 11.8644 72.8784C19.926 70.9005 23.8808 62.2281 26.923 53.0993C27.5314 51.2736 28.1398 49.4478 28.5961 47.622C31.4862 38.0368 34.3762 28.9079 40.4605 28.9079V25.7129H40.3084C36.962 25.7129 34.3762 27.3865 32.3988 30.1251C27.0751 29.6687 12.3207 25.865 6.08428 13.3889C12.0165 17.9534 22.5119 20.2356 37.5705 20.2356V17.0405C34.3762 17.0405 27.5314 15.2147 24.3371 8.36809C29.9651 12.0196 39.5478 13.5411 49.5869 15.0626C50.6517 15.2147 51.7164 15.3669 52.7812 15.519C57.9528 16.2797 63.1245 17.1926 67.6877 18.5619C76.0536 20.8441 81.9857 24.4957 81.9857 31.038C81.9857 31.4944 81.8336 32.103 81.8336 32.5595C81.6815 33.3202 81.2252 34.0809 80.921 34.8417C80.1604 36.211 79.2478 37.5803 78.1831 38.9497C75.9014 42.1447 73.6198 45.3398 73.6198 48.9914C73.6198 54.1644 77.1183 57.968 80.7689 58.8809C80.7689 66.184 80.6168 73.7913 80.0083 80.7901C79.3999 87.3324 78.4873 93.4183 76.9662 98.4391L79.3999 96.0048L81.3773 94.0269C83.5068 83.6809 83.9631 70.9005 83.9631 58.8809C86.2447 58.5766 87.3095 57.5116 88.2221 56.2944L90.8079 57.968C92.4811 55.9901 94.6106 50.8171 94.1543 44.8834ZM89.439 54.1644C89.2869 53.8601 88.9827 53.7079 88.6785 53.5558C88.07 53.0993 87.6137 52.9472 87.0053 52.6429C85.9405 52.1864 84.8758 51.8821 83.9631 51.5779C82.8984 51.2736 81.9857 50.8171 81.2252 50.2085C80.4647 49.5999 80.0083 48.8392 80.0083 47.9263H78.6394C78.6394 48.5349 78.7915 49.2957 79.0957 49.7521C79.3999 50.3607 79.8562 50.8171 80.3126 51.2736C81.2252 52.1864 82.29 52.6429 83.3547 53.0993C84.4195 53.5558 85.4842 54.0122 86.3969 54.4686C86.549 54.6208 86.701 54.6208 87.0053 54.7729C86.0926 56.1423 85.3321 56.903 82.7463 56.903C80.0083 56.903 76.2057 53.8601 76.2057 49.1435C76.2057 46.2527 78.3352 43.2098 80.4647 40.4711C81.8336 38.4932 83.2026 36.5153 84.1152 34.5374C84.4195 33.7766 84.5716 33.0159 84.7237 32.2552C87.9179 34.9938 89.5911 38.0368 90.5037 41.0797C91.8727 46.1006 90.808 51.1214 89.439 54.1644Z" fill="black"/>
<path d="M41.6792 82.1602C41.6792 82.3123 41.6792 82.4644 41.6792 82.6166C41.5271 85.0509 40.9187 86.8767 39.7018 88.0939C38.7892 89.0068 37.4202 89.6154 35.747 89.7675C35.4428 91.8976 34.5302 93.419 33.1612 94.4841L32.2486 93.5712L31.6401 92.9626C32.857 92.2019 33.6175 90.8325 33.6175 88.7025V87.4853H34.8344C36.3555 87.4853 37.5723 87.181 38.3329 86.5724C39.0934 85.8117 39.5497 84.2902 39.5497 82.1602H41.6792Z" fill="black"/>
<path d="M66.1662 27.387C66.9268 27.6913 67.6873 28.2999 68.2957 28.7563L70.121 26.6263C69.2084 25.8655 68.1436 25.257 67.0788 24.9527C66.0141 24.4962 64.6451 24.4962 63.4283 24.6484C62.2114 24.9527 61.1466 25.4091 60.234 26.0177C59.3214 26.6263 58.5608 27.387 57.8003 28.2999L59.1693 29.5171C60.5382 28.1477 62.0593 27.0827 63.7325 26.9306C64.6451 26.9306 65.4057 27.0827 66.1662 27.387Z" fill="black"/>
<path d="M70.2729 43.6661C69.8166 43.9703 69.3603 44.1225 68.9039 44.2746H68.7518C68.2955 44.4268 67.9913 44.5789 67.535 44.7311C67.0786 44.8832 66.6223 45.0354 66.166 45.0354C66.166 45.0354 66.166 45.0354 66.0139 45.0354C65.7097 45.1875 65.2534 45.1875 64.797 45.1875H64.6449L64.4928 43.8182C65.2534 43.6661 66.0139 43.3618 66.7744 43.0575C67.2307 42.9053 67.535 42.7532 67.8392 42.601C68.1434 42.4489 68.5997 42.1446 68.9039 41.9924L70.2729 43.6661Z" fill="black"/>
<path d="M65.7115 31.7981C64.3425 31.7981 63.1257 32.4067 62.0609 33.3196C62.3652 34.0803 62.6694 34.9932 62.9736 35.9061C63.1257 36.2104 62.8215 36.6668 62.3652 36.6668C61.4525 36.6668 60.5399 36.5147 59.6272 36.5147C59.323 37.1232 59.1709 37.7318 59.1709 38.1883C59.1709 39.7097 61.6046 41.6876 65.2552 41.6876C68.1452 41.6876 71.1874 40.014 71.1874 39.1012C71.3395 35.4496 69.21 31.7981 65.7115 31.7981Z" fill="black"/>
<path d="M46.0895 64.9665C51.0459 64.9665 55.0638 60.9475 55.0638 55.9899C55.0638 51.0322 51.0459 47.0132 46.0895 47.0132C41.1331 47.0132 37.1152 51.0322 37.1152 55.9899C37.1152 60.9475 41.1331 64.9665 46.0895 64.9665Z" fill="url(#paint6_radial)"/>
<defs>
<radialGradient id="paint0_radial" cx="0" cy="0" r="1" gradientUnits="userSpaceOnUse" gradientTransform="translate(56.5747 64.5851) rotate(134.069) scale(47.4875 63.7751)">
<stop offset="0.000909161" stop-color="#FFC83C"/>
<stop offset="0.4036" stop-color="#FFC63B"/>
<stop offset="0.6074" stop-color="#FEBE35"/>
<stop offset="0.7666" stop-color="#FDB12D"/>
<stop offset="0.9018" stop-color="#FC9E21"/>
<stop offset="1" stop-color="#FB8B14"/>
</radialGradient>
<radialGradient id="paint1_radial" cx="0" cy="0" r="1" gradientUnits="userSpaceOnUse" gradientTransform="translate(90.526 41.9563) scale(24.0646 24.0709)">
<stop stop-color="#FAB17D"/>
<stop offset="0.2598" stop-color="#E49263"/>
<stop offset="0.5573" stop-color="#CF744A"/>
<stop offset="0.8145" stop-color="#C2623B"/>
<stop offset="1" stop-color="#BE5C36"/>
</radialGradient>
<radialGradient id="paint2_radial" cx="0" cy="0" r="1" gradientUnits="userSpaceOnUse" gradientTransform="translate(58.6127 27.0455) rotate(130.21) scale(54.5758 66.9379)">
<stop offset="0.000400641" stop-color="#FFEB78"/>
<stop offset="0.4939" stop-color="#FFE976"/>
<stop offset="0.7399" stop-color="#FFE36E"/>
<stop offset="0.9305" stop-color="#FFD861"/>
<stop offset="1" stop-color="#FFD25A"/>
</radialGradient>
<radialGradient id="paint3_radial" cx="0" cy="0" r="1" gradientUnits="userSpaceOnUse" gradientTransform="translate(67.4732 27.3655) scale(32.2071 32.2156)">
<stop stop-color="#FFCE3C"/>
<stop offset="0.3587" stop-color="#FFCC3B"/>
<stop offset="0.5655" stop-color="#FEC336"/>
<stop offset="0.7338" stop-color="#FEB52D"/>
<stop offset="0.8803" stop-color="#FCA221"/>
<stop offset="1" stop-color="#FB8B14"/>
</radialGradient>
<radialGradient id="paint4_radial" cx="0" cy="0" r="1" gradientUnits="userSpaceOnUse" gradientTransform="translate(7.60633 16.4181) scale(30.9658 30.974)">
<stop stop-color="#FFEB78"/>
<stop offset="0.4376" stop-color="#FFDA5B"/>
<stop offset="0.9993" stop-color="#FFC73A"/>
</radialGradient>
<radialGradient id="paint5_radial" cx="0" cy="0" r="1" gradientUnits="userSpaceOnUse" gradientTransform="translate(24.3942 8.32586) scale(15.441 15.4451)">
<stop stop-color="#FFEB78"/>
<stop offset="0.1823" stop-color="#FFE066"/>
<stop offset="0.4855" stop-color="#FFD24E"/>
<stop offset="0.7658" stop-color="#FFCA3F"/>
<stop offset="0.9993" stop-color="#FFC73A"/>
</radialGradient>
<radialGradient id="paint6_radial" cx="0" cy="0" r="1" gradientUnits="userSpaceOnUse" gradientTransform="translate(51.592 49.0443) scale(20.1253 20.1306)">
<stop stop-color="#F96446"/>
<stop offset="0.000539303" stop-color="#F96446"/>
<stop offset="0.3059" stop-color="#F75246"/>
<stop offset="0.6293" stop-color="#F64746"/>
<stop offset="1" stop-color="#F64446"/>
</radialGradient>
</defs>
</svg>
